<svg width="24" height="24" viewBox="0 0 24 24" fill="none" xmlns="http://www.w3.org/2000/svg">
<g clip-path="url(#clip0_517_6372)">
<path d="M9.708 12.55C8.701 11.616 7.048 11.802 6.296 13.048C5.808 13.858 5.946 14.903 6.541 15.637L8.329 17.941C8.668 18.377 8.589 19.005 8.152 19.344C7.716 19.683 7.088 19.604 6.749 19.167L4.961 16.863C3.839 15.48 3.676 13.518 4.583 12.015C4.706 11.811 4.849 11.624 5 11.447V5.60298C5 4.29498 4.059 3.10398 2.758 2.97298C1.262 2.82298 0 3.99398 0 5.45998V16.007C0 18.141 0.853 20.187 2.369 21.69L4.161 23.465C4.531 23.808 5.016 23.998 5.521 23.998H13C13.552 23.998 14 23.55 14 22.998V19.178C14 17.523 13.316 15.941 12.11 14.807L9.708 12.549V12.55ZM21.242 2.97498C19.941 3.10498 19 4.29698 19 5.60498V11.449C19.151 11.626 19.293 11.812 19.417 12.017C20.323 13.52 20.161 15.482 19.039 16.865L16.001 19.889V23.001C16.001 23.353 15.929 23.687 15.817 24.001H18.481C18.985 24.001 19.471 23.811 19.841 23.468L21.631 21.696C23.148 20.194 24.002 18.147 24.002 16.011V5.46198C24.002 3.99598 22.741 2.82498 21.244 2.97498H21.242ZM17.704 13.049C16.952 11.803 15.299 11.617 14.292 12.551L13.46 13.333L13.48 13.352C14.621 14.425 15.401 15.816 15.763 17.32L17.458 15.638C18.053 14.904 18.191 13.858 17.703 13.049H17.704ZM17.003 2.75098C17.003 4.91398 14.183 7.60198 12.778 8.72898C12.325 9.09198 11.681 9.09198 11.228 8.72898C9.823 7.60098 7.003 4.91398 7.003 2.75098C6.937 1.30198 8.055 0.0729766 9.503 0.000976562C10.951 0.0729766 12.069 1.30198 12.003 2.75098C11.937 1.30198 13.055 0.0729766 14.503 0.000976562C15.951 0.0729766 17.069 1.30198 17.003 2.75098Z" fill="black"/>
</g>
<defs>
<clipPath id="clip0_517_6372">
<rect width="24" height="24" fill="white"/>
</clipPath>
</defs>
</svg>
