<svg width="25" height="25" viewBox="0 0 25 25" fill="none" xmlns="http://www.w3.org/2000/svg">
<path d="M13.7236 3.2515C13.2549 2.78287 12.4951 2.78287 12.0265 3.2515L3.6265 11.6515C3.15787 12.1201 3.15787 12.8799 3.6265 13.3486C4.09513 13.8172 4.85492 13.8172 5.32355 13.3486L5.67502 12.9971V20.9C5.67502 21.5628 6.21228 22.1 6.87502 22.1H9.27502C9.93777 22.1 10.475 21.5628 10.475 20.9V18.5C10.475 17.8373 11.0123 17.3 11.675 17.3H14.075C14.7378 17.3 15.275 17.8373 15.275 18.5V20.9C15.275 21.5628 15.8123 22.1 16.475 22.1H18.875C19.5378 22.1 20.075 21.5628 20.075 20.9V12.9971L20.4265 13.3486C20.8951 13.8172 21.6549 13.8172 22.1236 13.3486C22.5922 12.8799 22.5922 12.1201 22.1236 11.6515L13.7236 3.2515Z" fill="black"/>
</svg>
