<svg width="24" height="24" viewBox="0 0 24 24" fill="none" xmlns="http://www.w3.org/2000/svg">
<g clip-path="url(#clip0_730_617)">
<g clip-path="url(#clip1_730_617)">
<path d="M12 16C10.4178 16 8.87103 15.5308 7.55544 14.6518C6.23985 13.7727 5.21447 12.5233 4.60897 11.0615C4.00347 9.59966 3.84504 7.99113 4.15372 6.43928C4.4624 4.88743 5.22433 3.46197 6.34315 2.34315C7.46197 1.22433 8.88743 0.462403 10.4393 0.153721C11.9911 -0.15496 13.5997 0.00346625 15.0615 0.608967C16.5233 1.21447 17.7727 2.23985 18.6518 3.55544C19.5308 4.87103 20 6.41775 20 8C19.9976 10.121 19.154 12.1545 17.6542 13.6542C16.1545 15.154 14.121 15.9976 12 16ZM12 18C9.83339 17.999 7.72645 17.2901 6 15.981V21.5C6 21.971 6.13301 22.4323 6.38374 22.831C6.63446 23.2296 6.99269 23.5494 7.41717 23.7534C7.84164 23.9573 8.31511 24.0373 8.78303 23.984C9.25095 23.9307 9.69429 23.7463 10.062 23.452L11.688 22.152C11.7766 22.0813 11.8866 22.0427 12 22.0427C12.1134 22.0427 12.2234 22.0813 12.312 22.152L13.938 23.452C14.3057 23.7463 14.7491 23.9307 15.217 23.984C15.6849 24.0373 16.1584 23.9573 16.5828 23.7534C17.0073 23.5494 17.3656 23.2296 17.6163 22.831C17.867 22.4323 18 21.971 18 21.5V15.981C16.2735 17.2899 14.1666 17.9989 12 18Z" fill="black"/>
</g>
</g>
<defs>
<clipPath id="clip0_730_617">
<rect width="24" height="24" fill="white"/>
</clipPath>
<clipPath id="clip1_730_617">
<rect width="24" height="24" fill="white"/>
</clipPath>
</defs>
</svg>
