<svg width="22" height="24" viewBox="0 0 22 24" fill="none" xmlns="http://www.w3.org/2000/svg">
<path d="M21.305 2.87L19.024 7.492C17.385 5.741 15.184 4.532 12.705 4.145L13.65 2.23C14.329 0.854 15.703 0 17.237 0H19.52C20.212 0 20.844 0.351 21.209 0.939C21.575 1.527 21.611 2.249 21.305 2.87ZM9.295 4.145L8.35 2.23C7.671 0.854 6.297 0 4.763 0H2.503C1.811 0 1.179 0.351 0.814003 0.938C0.448003 1.527 0.413003 2.249 0.719003 2.87L2.991 7.477C4.628 5.734 6.824 4.531 9.295 4.145ZM20.001 15C20.001 19.963 15.963 24 11.001 24C6.039 24 2 19.963 2 15C2 10.037 6.038 6 11 6C15.962 6 20.001 10.037 20.001 15ZM15.158 14.41C15.158 14.104 14.892 13.766 14.462 13.766H12.322L11.755 11.591C11.665 11.246 11.356 11.006 11 11C10.645 11.007 10.335 11.246 10.245 11.591L9.678 13.766H7.538C7.108 13.766 6.842 14.103 6.842 14.41C6.842 14.771 7.093 15.075 7.381 15.235L8.871 16.063L8.21 17.866C8.082 18.215 8.198 18.607 8.495 18.831C8.799 19.06 9.218 19.057 9.518 18.824L11 17.678L12.482 18.824C12.783 19.056 13.202 19.059 13.505 18.831C13.802 18.607 13.918 18.216 13.79 17.866L13.129 16.063L14.619 15.235C14.907 15.075 15.158 14.771 15.158 14.41Z" fill="#E5E4E2"/>
<path d="M21.305 2.87L19.024 7.492C17.385 5.741 15.184 4.532 12.705 4.145L13.65 2.23C14.329 0.854 15.703 0 17.237 0H19.52C20.212 0 20.844 0.351 21.209 0.939C21.575 1.527 21.611 2.249 21.305 2.87ZM9.295 4.145L8.35 2.23C7.671 0.854 6.297 0 4.763 0H2.503C1.811 0 1.179 0.351 0.814003 0.938C0.448003 1.527 0.413003 2.249 0.719003 2.87L2.991 7.477C4.628 5.734 6.824 4.531 9.295 4.145ZM20.001 15C20.001 19.963 15.963 24 11.001 24C6.039 24 2 19.963 2 15C2 10.037 6.038 6 11 6C15.962 6 20.001 10.037 20.001 15ZM15.158 14.41C15.158 14.104 14.892 13.766 14.462 13.766H12.322L11.755 11.591C11.665 11.246 11.356 11.006 11 11C10.645 11.007 10.335 11.246 10.245 11.591L9.678 13.766H7.538C7.108 13.766 6.842 14.103 6.842 14.41C6.842 14.771 7.093 15.075 7.381 15.235L8.871 16.063L8.21 17.866C8.082 18.215 8.198 18.607 8.495 18.831C8.799 19.06 9.218 19.057 9.518 18.824L11 17.678L12.482 18.824C12.783 19.056 13.202 19.059 13.505 18.831C13.802 18.607 13.918 18.216 13.79 17.866L13.129 16.063L14.619 15.235C14.907 15.075 15.158 14.771 15.158 14.41Z" fill="url(#paint0_linear_1140_2019)" fill-opacity="0.5"/>
<defs>
<linearGradient id="paint0_linear_1140_2019" x1="11.0115" y1="0" x2="11.0115" y2="24" gradientUnits="userSpaceOnUse">
<stop stop-color="#CD7F32"/>
<stop offset="1"/>
</linearGradient>
</defs>
</svg>
