<svg width="24" height="24" viewBox="0 0 24 24" fill="none" xmlns="http://www.w3.org/2000/svg">
<path d="M22.305 2.87L20.024 7.492C18.385 5.741 16.184 4.532 13.705 4.145L14.65 2.23C15.329 0.854 16.703 0 18.237 0H20.52C21.212 0 21.844 0.351 22.209 0.939C22.575 1.527 22.611 2.249 22.305 2.87ZM10.295 4.145L9.35 2.23C8.671 0.854 7.297 0 5.763 0H3.503C2.811 0 2.179 0.351 1.814 0.938C1.448 1.527 1.413 2.249 1.719 2.87L3.991 7.477C5.628 5.734 7.824 4.531 10.295 4.145ZM21.001 15C21.001 19.963 16.963 24 12.001 24C7.039 24 3 19.963 3 15C3 10.037 7.038 6 12 6C16.962 6 21.001 10.037 21.001 15ZM16.158 14.41C16.158 14.104 15.892 13.766 15.462 13.766H13.322L12.755 11.591C12.665 11.246 12.356 11.006 12 11C11.645 11.007 11.335 11.246 11.245 11.591L10.678 13.766H8.538C8.108 13.766 7.842 14.103 7.842 14.41C7.842 14.771 8.093 15.075 8.381 15.235L9.871 16.063L9.21 17.866C9.082 18.215 9.198 18.607 9.495 18.831C9.799 19.06 10.218 19.057 10.518 18.824L12 17.678L13.482 18.824C13.783 19.056 14.202 19.059 14.505 18.831C14.802 18.607 14.918 18.216 14.79 17.866L14.129 16.063L15.619 15.235C15.907 15.075 16.158 14.771 16.158 14.41Z" fill="#C0C0C0"/>
<path d="M22.305 2.87L20.024 7.492C18.385 5.741 16.184 4.532 13.705 4.145L14.65 2.23C15.329 0.854 16.703 0 18.237 0H20.52C21.212 0 21.844 0.351 22.209 0.939C22.575 1.527 22.611 2.249 22.305 2.87ZM10.295 4.145L9.35 2.23C8.671 0.854 7.297 0 5.763 0H3.503C2.811 0 2.179 0.351 1.814 0.938C1.448 1.527 1.413 2.249 1.719 2.87L3.991 7.477C5.628 5.734 7.824 4.531 10.295 4.145ZM21.001 15C21.001 19.963 16.963 24 12.001 24C7.039 24 3 19.963 3 15C3 10.037 7.038 6 12 6C16.962 6 21.001 10.037 21.001 15ZM16.158 14.41C16.158 14.104 15.892 13.766 15.462 13.766H13.322L12.755 11.591C12.665 11.246 12.356 11.006 12 11C11.645 11.007 11.335 11.246 11.245 11.591L10.678 13.766H8.538C8.108 13.766 7.842 14.103 7.842 14.41C7.842 14.771 8.093 15.075 8.381 15.235L9.871 16.063L9.21 17.866C9.082 18.215 9.198 18.607 9.495 18.831C9.799 19.06 10.218 19.057 10.518 18.824L12 17.678L13.482 18.824C13.783 19.056 14.202 19.059 14.505 18.831C14.802 18.607 14.918 18.216 14.79 17.866L14.129 16.063L15.619 15.235C15.907 15.075 16.158 14.771 16.158 14.41Z" fill="url(#paint0_linear_690_3451)" fill-opacity="0.5"/>
<defs>
<linearGradient id="paint0_linear_690_3451" x1="12.0115" y1="0" x2="12.0115" y2="24" gradientUnits="userSpaceOnUse">
<stop stop-color="#C0C0C0" stop-opacity="0"/>
<stop offset="1"/>
</linearGradient>
</defs>
</svg>
