<?xml version="1.0" encoding="UTF-8"?>
<svg version="1.1" xmlns="http://www.w3.org/2000/svg" width="225" height="225"><path d="M0 0 C74.25 0 148.5 0 225 0 C225 74.25 225 148.5 225 225 C150.75 225 76.5 225 0 225 C0 150.75 0 76.5 0 0 Z" fill="none" transform="translate(0,0)"/>
<path d="M0 0 C0.62600098 0.22381348 1.25200195 0.44762695 1.89697266 0.67822266 C5.76173495 2.15969804 8.86087832 3.96145294 12.2578125 6.33203125 C18.87015995 10.40286815 25.86883785 10.08035056 33.375 10.0625 C34.77477674 10.08066628 36.17452171 10.10148117 37.57421875 10.125 C40.96675312 10.17179358 44.35721114 10.1919684 47.75 10.1875 C47.35603027 10.64133057 46.96206055 11.09516113 46.55615234 11.56274414 C43.72179109 14.84520689 40.94915661 18.13150174 38.375 21.625 C37.87226563 22.30433594 37.36953125 22.98367187 36.8515625 23.68359375 C36.48804688 24.17988281 36.12453125 24.67617187 35.75 25.1875 C36.20890625 25.744375 36.6678125 26.30125 37.140625 26.875 C46.41837838 38.41371849 49.06536166 48.33860802 47.75 63.1875 C45.33400022 75.32272173 38.56483426 83.9070884 28.75 91.1875 C18.30124541 96.99794526 6.0014349 97.94069171 -5.6328125 95.46875 C-11.18597495 93.55066603 -15.67509212 90.84742631 -20.25 87.1875 C-24.28721561 88.75333596 -26.72070582 91.62923865 -29.5 94.8125 C-29.95890625 95.328125 -30.4178125 95.84375 -30.890625 96.375 C-32.01592296 97.6409602 -33.13372177 98.91357942 -34.25 100.1875 C-39.13049925 96.2455583 -43.3080583 92.06799925 -47.25 87.1875 C-49.54894595 88.33144666 -51.83950305 89.48946012 -54.125 90.66015625 C-55.15625 91.18480469 -56.1875 91.70945312 -57.25 92.25 C-58.28125 92.77722656 -59.3125 93.30445313 -60.375 93.84765625 C-69.2417554 97.9798534 -82.17809454 97.67987583 -91.375 94.5625 C-101.49032626 90.13028834 -110.47238962 82.20734638 -114.6875 71.875 C-115.24413997 70.32489498 -115.76850301 68.76256643 -116.25 67.1875 C-116.44207031 66.589375 -116.63414063 65.99125 -116.83203125 65.375 C-119.52038661 51.3051028 -115.98642605 39.85257991 -108.25 28.1875 C-107.26211515 26.84516573 -106.26589234 25.50876474 -105.25 24.1875 C-106.11625 23.26066406 -106.9825 22.33382812 -107.875 21.37890625 C-109.00012988 20.16939163 -110.12512284 18.95974965 -111.25 17.75 C-111.82234375 17.13833984 -112.3946875 16.52667969 -112.984375 15.89648438 C-117.25 11.30078125 -117.25 11.30078125 -117.25 10.1875 C-115.9810791 10.19704712 -115.9810791 10.19704712 -114.68652344 10.20678711 C-111.48746816 10.21399219 -108.29051682 10.18945235 -105.09179688 10.14477539 C-103.7188112 10.13179548 -102.34565023 10.13075235 -100.97265625 10.14282227 C-91.84459252 10.21288416 -85.55964878 9.12382191 -77.94384766 3.9543457 C-55.69466096 -10.63849136 -23.91655213 -8.57238121 0 0 Z " fill="#000101" transform="translate(147.25,65.8125)"/>
<path d="M0 0 C0.33 0 0.66 0 1 0 C1 33.66 1 67.32 1 102 C-33.98 102 -68.96 102 -105 102 C-105 101.67 -105 101.34 -105 101 C-104.01902344 100.90203125 -103.03804688 100.8040625 -102.02734375 100.703125 C-74.36349811 97.73543563 -52.0004869 87.27160618 -32 68 C-31.34257812 67.40574219 -30.68515625 66.81148438 -30.0078125 66.19921875 C-11.87700243 49.36346654 -3.31220765 23.75095244 0 0 Z " fill="none" transform="translate(224,123)"/>
<path d="M0 0 C0.33 0 0.66 0 1 0 C1.05422119 0.5669458 1.10844238 1.1338916 1.16430664 1.71801758 C3.69994928 26.74458377 11.76318671 49.24147767 29 68 C29.44714355 68.48952148 29.89428711 68.97904297 30.35498047 69.48339844 C50.3091543 91.08843252 76.85735253 102.85798723 106 105 C106 105.33 106 105.66 106 106 C71.02 106 36.04 106 0 106 C0 71.02 0 36.04 0 0 Z " fill="none" transform="translate(0,119)"/>
<path d="M0 0 C34.32 0 68.64 0 104 0 C104 0.33 104 0.66 104 1 C102.80246094 1.15855469 101.60492188 1.31710938 100.37109375 1.48046875 C69.74412409 5.76628347 42.67384352 19.6160657 23.40234375 44.22265625 C11.05295528 61.31692125 4.08836397 80.26025498 1 101 C0.67 101 0.34 101 0 101 C0 67.67 0 34.34 0 0 Z " fill="none" transform="translate(224,123)"/>
<path d="M0 0 C33.66 0 67.32 0 102 0 C102 33.33 102 66.66 102 101 C101.67 101 101.34 101 101 101 C100.78085938 99.741875 100.56171875 98.48375 100.3359375 97.1875 C96.27967457 74.87914958 88.5541114 54.9272673 73 38 C72.55285645 37.51047852 72.10571289 37.02095703 71.64501953 36.51660156 C60.27141481 24.2020292 47.17621375 15.88623287 32 9 C31.10152344 8.58878906 30.20304687 8.17757813 29.27734375 7.75390625 C20.00382529 3.97689477 9.81924369 2.70103595 0 1 C0 0.67 0 0.34 0 0 Z " fill="none" transform="translate(123,0)"/>
<path d="M0 0 C6.13639312 5.28774301 9.43218913 11.03005988 10.34765625 19.04296875 C10.77196608 28.32338632 8.55855373 34.67202924 2.6875 41.8125 C-6.51800445 49.30535246 -14.27659355 51.16297642 -26 50 C-29.10213119 49.12083507 -31.4108073 47.8938852 -34 46 C-34.86625 45.46375 -35.7325 44.9275 -36.625 44.375 C-42.76915362 38.23084638 -46.12874782 31.06579768 -46.375 22.4375 C-46.28200344 14.22844 -44.4380556 8.82369302 -38.9453125 2.71484375 C-27.27613939 -8.40922958 -13.42233552 -9.11632615 0 0 Z " fill="#32DB9D" transform="translate(172,99)"/>
<path d="M0 0 C6.13639312 5.28774301 9.43218913 11.03005988 10.34765625 19.04296875 C10.77196608 28.32338632 8.55855373 34.67202924 2.6875 41.8125 C-6.03061786 48.90864245 -12.94561303 50.8403579 -24.05761719 50.23095703 C-30.63402749 49.44899573 -35.88725794 44.91244191 -40 40 C-45.73492935 31.70716182 -46.92523714 25.15583823 -46 15 C-43.60333021 6.43044413 -37.57949979 0.34095048 -30.0625 -4.16015625 C-19.62379285 -8.83582716 -9.10675319 -6.18522254 0 0 Z " fill="#33DB9D" transform="translate(89,99)"/>
<path d="M0 0 C-2.95700621 2.30757027 -6.02395161 4.21702281 -9.25 6.125 C-19.67519514 12.75542411 -26.56106901 22.01870364 -29.3125 34.125 C-29.539375 35.40375 -29.76625 36.6825 -30 38 C-31.41346662 35.32878765 -32.41542445 32.77461505 -33.25 29.875 C-37.73517078 16.35287622 -46.48309339 8.44081877 -58.91015625 2.03125 C-59.59980469 1.6909375 -60.28945312 1.350625 -61 1 C-50.3557302 -12.96560211 -12.99873231 -7.19630567 0 0 Z " fill="#33DB9D" transform="translate(143,79)"/>
<path d="M0 0 C4.40802625 2.16394016 7.23139226 4.38196867 9 9 C9.70952366 13.62265413 10.0791694 17.97475876 7.828125 22.19921875 C4.00163105 26.9034394 0.60060244 28.71629792 -5.4375 29.375 C-10.74331945 28.81649269 -13.45052158 26.34559968 -17.375 22.9375 C-19.88884544 18.39324094 -19.73753515 14.07334788 -19 9 C-14.9446576 0.58891946 -8.83505793 -1.2742872 0 0 Z " fill="#000201" transform="translate(159,107)"/>
<path d="M0 0 C4.40802625 2.16394016 7.23139226 4.38196867 9 9 C9.70952366 13.62265413 10.0791694 17.97475876 7.828125 22.19921875 C4.00163105 26.9034394 0.60060244 28.71629792 -5.4375 29.375 C-10.74331945 28.81649269 -13.45052158 26.34559968 -17.375 22.9375 C-19.88884544 18.39324094 -19.73753515 14.07334788 -19 9 C-14.9446576 0.58891946 -8.83505793 -1.2742872 0 0 Z " fill="#000101" transform="translate(76,107)"/>
</svg>
